<?xml version="1.0" encoding="UTF-8"?><svg id="Layer_2" xmlns="http://www.w3.org/2000/svg" viewBox="0 0 207.48 133.92"><g id="Layer_1-2"><g><path d="m206.93,3.25h-33.22l-.54,6.86,12.82,2.53-26.74,73.8-27.42-73.98,11.01-2.35-.54-6.86h-36.65l-.36,6.86,9.03,2.53,3.87,10.05-26.81,65.71L56.51,0l-10.47,6.32L8.85,99.85l-8.85,2.53.36,6.86h30.33l.36-6.86-11.01-2.53,8.57-24.09c3.45-.08,6.71-.15,9.76-.2,3.91-.06,7.67-.09,11.28-.09s7.61.03,11.65.09c2.52.04,5.08.11,7.63.17l9.61,24.12-11.01,2.53.36,6.86h25.98l.39.54.22-.54h9.88l.54-6.86-6.89-1.93,25.58-63.67,28.09,73h7.76L198.27,12.64l9.21-2.53-.54-6.86ZM49.65,66.81c-5.78,0-10.65-.06-14.62-.18-1.09-.03-2.1-.06-3.07-.1l15.99-43.81,17.58,43.86c-.43.01-.88.03-1.34.04-4.03.12-8.88.18-14.54.18Z"/><path d="m93.35,130.01s-.09,0-.13,0c-.09,0-.06,0,.13,0Z"/><path d="m187.72,119.16c-1.27-.24-50.67-.13-50.61-.26.88-1.99-.2-3.79-2.41-3.8-9.99-.07-76.59-.4-86.21-.44-1.07,0-2.17-.11-2.77,1.08-.57,1.14.04,1.96.76,2.77.01.02,0,.07-.04.28-3.27-.02-6.57-.03-9.96-.05.72-1.8.59-2.28-.66-3.05-1.86-1.16-5.76-1.05-7.52.21-.99.71-1.09,1.21-.49,2.3-2.48.17-4.95.33-7.47.5.57-1.93.21-2.63-1.63-3.25-1.93-.65-3.86-.64-5.75.06-1.7.63-2.03,1.31-1.55,3.15-.37.02-5.66.05-7.94.06-1.8,0-2.26.28-2.8,1.99-.88,2.81-.82,5.66.11,8.48.67,2.04,1.17,2.33,3.34,2.29,14.85-.24,45.27-.7,45.61-.68.3,2.27,1.71,3.24,4.43,3.14,2.46-.1,3.67-1.13,3.71-3.33,11.68-.19,23.37-.37,35.35-.57.38-.02,2.92-.14,3.53-.82,1.53-1.69,3.57-1.9,5.02-.34.79.85,1.6,1,2.64.98,15.81-.28,70.78-1.19,82.47-1.35,1.31-.02,2.21-.52,2.65-1.7.77-2.08.73-4.2-.24-6.23-.29-.6-.97-1.3-1.56-1.41Z"/></g></g></svg>